<?xml version="1.0" encoding="utf-8"?>
<!-- Generator: Adobe Illustrator 24.1.1, SVG Export Plug-In . SVG Version: 6.00 Build 0)  -->
<svg version="1.1" id="Layer_1" xmlns="http://www.w3.org/2000/svg" xmlns:xlink="http://www.w3.org/1999/xlink" x="0px" y="0px"
	 viewBox="0 0 218.3 452.7" style="enable-background:new 0 0 218.3 452.7;" xml:space="preserve">
<style type="text/css">
	.st0{fill:#FFFFFF;stroke:#000000;stroke-miterlimit:10;}
</style>
<path id="XMLID_121_" class="st0" d="M129.2,250.43c-5.17-10.37-7.28-14.52-10.05-29.11c-2.77-14.59,3.46-31.74,6.91-53.18
	c3.46-21.44,4.84-53.94,0-68.46s-22.13-38.03-24.2-47.02S98.4,33.3,96.33,26.38c-2.07-6.91-5.53-11.76-6.22-4.15
	s0.69,17.29-5.53,30.43c0,0-12.45,21.44-16.6,29.04c-4.15,7.61-10.37,15.21-13.14,47.02s4.15,42.87,11.41,71.92
	s2.42,26.28,0.35,56.7c-2.07,30.43,5.53,42.18,13.14,65.69s5.53,33.88,8.3,52.55c2.77,18.67,12.45,38.03,11.76,44.26
	c-0.69,6.22-6.22,11.06-3.46,11.76c2.77,0.69,16.6,3.46,17.98,0c1.38-3.46-2.77-11.06-4.84-15.9s0-29.04,2.07-29.04
	s5.53-9.68,6.22-15.9s14.52-29.73,23.51-37.34s40.11-24.2,45.64-38.03C192.45,281.54,134.36,260.8,129.2,250.43z M106.01,108.19
	c-12.45-11.27-22.13-3.25-25.59,0c-3.46,3.25-7.61,10.86-4.84,21.92c2.77,11.06,5.53,11.76,5.53,18.67s-3.88,11.79-6.44,8.66
	c-2.55-3.13-6.7-24.56-6.01-40.47c0.69-15.9,15.21-42.87,19.36-52.55c1.47-3.42,3.46-10.37,8.99,0s18.67,28.35,18.67,42.18
	s5.53,32.5,0,40.11c-5.53,7.61-11.37,13.14-12.6,9.68c-1.23-3.46-4.3-7.61,0-13.83C107.4,136.33,118.46,119.46,106.01,108.19z
	 M153.73,299.52c-3.46,4.84-20.86,19.36-24.95,26.97s-12.46,14.74-18.61,17.98c-13.14,6.91-7.61-59.47-7.61-59.47
	c5.53-0.69,26.28,4.84,38.72,9.68S157.18,294.68,153.73,299.52z"/>
</svg>
