<?xml version="1.0" encoding="utf-8"?>
<!-- Generator: Adobe Illustrator 24.1.1, SVG Export Plug-In . SVG Version: 6.00 Build 0)  -->
<svg version="1.1" id="Layer_1" xmlns="http://www.w3.org/2000/svg" xmlns:xlink="http://www.w3.org/1999/xlink" x="0px" y="0px"
	 viewBox="0 0 473.52 452.7" style="enable-background:new 0 0 473.52 452.7;" xml:space="preserve">
<style type="text/css">
	.st0{fill:#FFFFFF;stroke:#000000;stroke-miterlimit:10;}
</style>
<path id="XMLID_103_" class="st0" d="M383.03,402.59c-5.12-1.46-20.11-9.51-22.67-12.8c-2.56-3.29-1.1-4.39-1.83-15.72
	c-0.73-11.34,12.8-49.73,15.72-64.36c2.93-14.63,6.58-25.6-6.95-32.18s-75.33-8.41-75.33-8.41s1.83-9.51,4.02-19.38
	s5.12-32.91,0-52.66s-23.04-23.31-28.25-30.44s-1.37-11.79-1.37-13.44c0-1.65,10.15-2.74,12.62-3.02c2.47-0.27,3.29-2.47,3.57-3.84
	c0.27-1.37-0.82-3.29-0.55-4.94c0.27-1.65,0.82-1.92,0.27-3.57c-0.55-1.65-1.65-2.19,1.37-4.94c3.02-2.74-6.58-6.58-6.86-9.05
	c-0.27-2.47-2.38-7.22-3.84-12.34c-1.46-5.12-13.16-10.97-24.87-8.04c-11.7,2.93-14.63,17.55-17.55,10.97
	c-2.93-6.58-29.99-40.96-36.57-49c-6.58-8.05-18.28-19.75-24.41-20.48c-6.12-0.73-7.77-1.46-11.43,2.93
	c-3.66,4.39,12.43,12.43,10.97,17.55c-1.46,5.12-1.46,5.12,0,9.51s7.53-1.63,12.43,0c6.58,2.19,14.26,19.02,22.31,35.47
	c7.26,14.85,13.63,16.3,17.22,22.36c-2.12,2.61-5.18,7.86-3.69,15.31c2.19,10.97,12.43,14.63,12.43,14.63s-0.49-5.17-0.5-10.72
	c6.64,15.83,15.37,37.04,16.59,42.9c1.83,8.78,6.58,33.64,7.31,38.4c0.73,4.75-1.1,13.53-6.58,18.28
	c-5.49,4.75-12.8,5.85-21.57,12.8c-8.78,6.95-6.58,19.01-8.04,23.04c-1.46,4.02-28.16,23.04-45.34,32.54
	c-17.19,9.51-15.36,8.78-37.66,12.8c-22.31,4.02-37.3,16.46-42.78,20.48c-5.49,4.02-12.8,10.97-17.19,13.53s-10.97,5.12-10.24,9.87
	s12.8,14.99,17.19,19.01c4.39,4.02,9.51,5.12,12.07,5.12s9.51,1.1,12.8-0.73c3.29-1.83-1.46-2.93-6.22-5.12
	c-4.75-2.19-5.49-4.75-10.97-10.6c-5.49-5.85-1.83-9.14,3.66-14.99c5.49-5.85,45.34-11.7,54.48-15.72s13.9-2.56,25.23-5.12
	c11.34-2.56,32.91-10.6,47.54-18.28c14.63-7.68,36.93-21.57,36.93-21.57c8.41-2.19,30.35,3.66,51.19-0.37
	c20.84-4.02,42.05-3.66,42.05-3.66s-8.78,26.33-8.41,38.76c0.37,12.43-1.1,33.64-1.83,44.98c-0.73,11.34-5.85,15.72-2.56,18.28
	s21.21,0.73,29.62,1.1s22.67,1.1,24.5,0C392.9,406.61,388.15,404.05,383.03,402.59z"/>
</svg>
