<?xml version="1.0" encoding="utf-8"?>
<!-- Generator: Adobe Illustrator 24.1.1, SVG Export Plug-In . SVG Version: 6.00 Build 0)  -->
<svg version="1.1" id="Layer_1" xmlns="http://www.w3.org/2000/svg" xmlns:xlink="http://www.w3.org/1999/xlink" x="0px" y="0px"
	 viewBox="0 0 369.04 350.75" style="enable-background:new 0 0 369.04 350.75;" xml:space="preserve">
<style type="text/css">
	.st0{fill:#FFFFFF;stroke:#3A3A3A;stroke-miterlimit:10;}
</style>
<path id="XMLID_115_" class="st0" d="M338.25,246.62c0.76-0.25,9.16-4.32,12.46-6.1c3.31-1.78,6.87-4.58,5.34-6.61
	s-5.85,2.03-9.16,4.07c-3.31,2.03-8.39,2.54-8.39,2.54s0.51-10.68,0-16.28c-0.28-3.13-1.84-5.3-3.16-6.61
	c-0.93-0.93-2.48-0.8-3.28,0.24c-2.46,3.18-7.84,9.97-12.38,14.51c-6.1,6.1-14.75,3.05-23.4,0s-37.64-25.94-37.64-25.94
	s-3.56-15.26-5.59-20.41c-2.03-5.15-4.58-20.28-4.58-35.54s-2.54-18.31-8.65-24.41c-6.1-6.1-20.85-3.05-24.92-4.58
	c-4.07-1.53-13.73-9.66-14.75-15.26c-1.02-5.59-2.03-10.68,5.09-21.36s6.61-15.26,5.6-24.41c-1.02-9.16-1.53-8.65-5.09-18.82
	S191,24.87,179.3,27.92s-21.87,15.26-21.36,33.06s4.07,18.82,7.63,22.89c3.56,4.07,2.54,14.24,4.58,21.36
	c2.03,7.12-6.97,14.97-15.77,16.28c-7.7,1.15-14.24-0.51-24.92,6.1c-10.68,6.61-9.66,28.48-8.65,34.59
	c1.02,6.1,2.03,8.65-1.02,27.47c-3.05,18.82-5.59,25.43-20.34,34.08C84.7,232.38,73,240,62.83,238.99
	c-10.17-1.02-18.82-9.66-20.85-11.7c-2.03-2.03-8.14-9.16-9.16-3.05c-1.02,6.1-3.05,18.31-6.1,18.31s-11.7-4.07-13.73-4.07
	s5.09,6.1,8.65,8.14c3.56,2.03,14.24,11.19,19.33,9.16s12.21-2.03,12.21-2.03s-7.12,8.65-7.12,17.29c0,8.65,20.34,24.92,43.74,34.59
	c23.4,9.66,26.96,7.63,76.8,8.65c49.85,1.02,76.29,0,76.29,0c2.03-0.51,18.82-1.53,44.76-18.82s29.25-26.7,27.72-35.56
	s-4.07-10.47-3.05-10.47c1.02,0,5.85,0.51,7.37,3.05c1.53,2.54,5.85,6.1,7.88,6.61s8.14,1.53,9.41,0s-2.54-1.27-5.34-2.03
	s-3.56-3.56-3.56-4.83s3.31,1.78,6.61,1.27c3.31-0.51,10.68,0.51,15,0s3.81-2.54,3.31-3.31c-0.51-0.76-11.7,0-15-1.27
	C334.69,247.63,337.49,246.87,338.25,246.62z M40.96,245.09c-0.75,2.63-6.61-4.58-6.61-8.14s2.03-9.16,3.31-7.63
	C38.93,230.85,42.99,237.97,40.96,245.09z M143.7,236.44c-2.54,12.72-1.53,19.84-10.68,20.34s-50.86-2.03-50.35-6.1
	s31.03-10.17,42.72-17.29c11.7-7.12,12.72-22.89,13.73-28.48c1.02-5.6,3.42-14.41,4.58-10.17
	C145.75,202.21,146.25,223.73,143.7,236.44z M232.2,258.82c-7.63-1.53-2.54-11.19-9.66-27.97s3.56-48.83,3.56-48.83
	c2.05-7.12,9.66,30.52,21.36,44.25c11.7,13.73,38.15,15.26,40.69,19.84C290.7,250.69,239.83,260.35,232.2,258.82z M329.86,241.02
	c-5.28,0.53-3.05-7.12,0-11.7s5.59-1.53,5.59,0C335.45,230.85,334.95,240.51,329.86,241.02z"/>
</svg>
